<mxfile host="65bd71144e">
    <diagram id="q6tYaZduSMw6BynP_jNs" name="ページ1">
        <mxGraphModel dx="410" dy="371" grid="1" gridSize="10" guides="1" tooltips="1" connect="1" arrows="1" fold="1" page="1" pageScale="1" pageWidth="827" pageHeight="1169" math="1" shadow="0">
            <root>
                <mxCell id="0"/>
                <mxCell id="1" parent="0"/>
                <mxCell id="2" value="" style="shape=image;verticalLabelPosition=bottom;labelBackgroundColor=#ffffff;verticalAlign=top;aspect=fixed;imageAspect=0;image=data:image/png,/9j/4AAQSkZJRgABAQAAAQABAAD//gA7Q1JFQVRPUjogZ2QtanBlZyB2MS4wICh1c2luZyBJSkcgSlBFRyB2NjIpLCBxdWFsaXR5ID0gOTAK/9sAQwADAgIDAgIDAwMDBAMDBAUIBQUEBAUKBwcGCAwKDAwLCgsLDQ4SEA0OEQ4LCxAWEBETFBUVFQwPFxgWFBgSFBUU/9sAQwEDBAQFBAUJBQUJFA0LDRQUFBQUFBQUFBQUFBQUFBQUFBQUFBQUFBQUFBQUFBQUFBQUFBQUFBQUFBQUFBQUFBQU/8AAEQgBEgEsAwEiAAIRAQMRAf/EAB8AAAEFAQEBAQEBAAAAAAAAAAABAgMEBQYHCAkKC//EALUQAAIBAwMCBAMFBQQEAAABfQECAwAEEQUSITFBBhNRYQcicRQygZGhCCNCscEVUtHwJDNicoIJChYXGBkaJSYnKCkqNDU2Nzg5OkNERUZHSElKU1RVVldYWVpjZGVmZ2hpanN0dXZ3eHl6g4SFhoeIiYqSk5SVlpeYmZqio6Slpqeoqaqys7S1tre4ubrCw8TFxsfIycrS09TV1tfY2drh4uPk5ebn6Onq8fLz9PX29/j5+v/EAB8BAAMBAQEBAQEBAQEAAAAAAAABAgMEBQYHCAkKC//EALURAAIBAgQEAwQHBQQEAAECdwABAgMRBAUhMQYSQVEHYXETIjKBCBRCkaGxwQkjM1LwFWJy0QoWJDThJfEXGBkaJicoKSo1Njc4OTpDREVGR0hJSlNUVVZXWFlaY2RlZmdoaWpzdHV2d3h5eoKDhIWGh4iJipKTlJWWl5iZmqKjpKWmp6ipqrKztLW2t7i5usLDxMXGx8jJytLT1NXW19jZ2uLj5OXm5+jp6vLz9PX29/j5+v/aAAwDAQACEQMRAD8A/VKiiigAooozQAUUUUAFFFFAAaKKSgBaKSigBaKSloAKKSigBaKKSgBaKSjpQAtFFHegAopKWgA70UUUAFGaSloAKKKSgBaKKKACikpe9ABRRSUAL3pKKWgAooooABRRRQADpRQKKACiiigANJSmigBCKKKMUAHaiijtQAUUppKAFpMUtJQAYo/WjFFABS96SigApcUlFACikoAooAMUY5ooIoAMUUdKMUALSdaXNFACUtJS4oASjFFFABRzRilxnvQAUUUUAFFFFABRRWT4l8T2PhOxS81B5lhaVIVFvbS3EjO5wqrHGrMxJ9BQBrUVyH/C0dG/58/EX/hM6l/8j0f8LR0f/nz8R/8AhM6l/wDI9AHX0fzrkP8AhaOj/wDPl4j/APCZ1L/5Ho/4Wjo//Pl4j/8ACZ1L/wCR6AOu70VyP/C0dH/58vEf/hM6l/8AI9H/AAtHR/8Any8Rf+EzqX/yPQB11LXIf8LR0f8A58/Ef/hM6l/8j0f8LR0f/ny8R/8AhM6l/wDI9AHX0lcj/wALR0f/AJ8/Ef8A4TOpf/I9H/C0dH/58/Ef/hM6l/8AI9AHX9qK5D/haOj/APPn4i/8JnUv/kej/haOjf8APn4j/wDCZ1L/AOR6AOupa5D/AIWjo/8Az5+I/wDwmdS/+R6P+Fo6P/z5+I//AAmdS/8AkegDr6K5D/haOj/8+XiP/wAJnUv/AJHo/wCFo6N/z5+I/wDwmdS/+R6AOvorkP8AhaOj/wDPl4j/APCZ1L/5Ho/4Wjo//Pl4j/8ACZ1L/wCR6AOvpK5H/haOj/8APn4i/wDCZ1L/AOR6P+Fo6P8A8+XiL/wmdS/+R6AOupTXIf8AC0dH/wCfLxH/AOEzqX/yPR/wtHR/+fLxH/4TOpf/ACPQB11HSuR/4Wjo/wDz5eIv/CZ1L/5Ho/4Wjo//AD5eIv8AwmdS/wDkegDr6K5D/haOj/8APn4j/wDCZ1L/AOR6P+Fo6P8A8+XiP/wmdS/+R6AOvorkP+Fo6P8A8+XiL/wmdS/+R6P+Fo6P/wA+fiP/AMJnUv8A5HoA66jvXN6N8QNJ13V00y3XUob5oHuUiv8ASbqz3xoyK7K00SBsGRAQDn5hXSUAL3oFFH0oAKKKKACikJIGcZryH4OftA/8LW1y5spvDz6JbXFgusaLdG8E51GwM8kPmuoRTC+URvLJbiVechgoB6/XDfFvTYtX0vQ7Sd544pdaslZra4kgkH7zPyyRsrL07EVxH7OH7TCfH+TV45NJsdAuLKOOeKxXUpLi6eJnkTzHje3i2rmPAZGkUnIyCvPW/G4aQfDuk/28lrLpH9s2X2hL1FeEr5vG4NwRnHWgDutM06LSbGG0heeSKIbVa5neeQj/AGnclmPuSatVynhPxX4SuRFo/h2904rDGTHZWG1VjQHnaqgADnt611VAAaKDRwaACiijNABRSUcUALRRRQAUZoo7UAGaBRRQAdqKOKM0AFFFGaADNJS0UAGaKM0UAGaM0UUAFJS0UAFFFFAHI6n/AMlZ8N/9gTVP/R+n112a5HU/+Ss+G/8AsCap/wCj9PrrcigA70ZxS96Q4oAXNFBooARhuXANeR/D79nWy+GurzX+leJ9ZkIWK0sYLlbZ47DT0nknNjFiEHymaQgsxaTaiAONor12igDzH4cfA5PAXiu68Q3vi3xB4v1N7P8As20l16eKQ2Vp5rSmJTHGhkJYrl5S74RRux11fi1eS2Gl6HPDZT6jKmtWZW1tjGJJP3nRTIyr78sOldzXDfFtr2PTNDfT4ILq8GtWXlQ3M7QxsfM/idUcrxnopoA6/TbuS/sYp5rOfT5XGWtrkoZIz6MUZlz9GNWqq6Y15JYxNfwQW14R+8itpjNGp9FcohYe5UVaoADRmg0UAFFHeigAzRQaKACiiigBGYKM15h8Yvi5c+DZdK8MeGLAa18QPEAcaVp7xyGCCNXjSW8umQHy4IvNQsTjcSEU7jw349+PdZ8OaFp/hzwhEZfHXiud9M0Z2UGKzcRM8t5MTwI4UUtjB3NsXB3VqfCr4IeEPhDZSHQdItk1m7QDU9eliVtQ1STJZpbmc/PKxZmb5icbsDAwKAOEu/2adZn8PXF2vxX8bN4+MZlh11tZnSxiudvH/EtR1tTDuz+7ZGODjfkAjv8A4JfEG4+KHw00jxBfWcenanKZrW/soyxW3u7eZ7e4jG4BsLLE4wRkYwa7kj5SK8h/ZoElloXjrSWZZI9N8ba4I5FUqWWe8e8O7k8q10y5HUKOKAPXqXiiigBKM0tJQAuaTNLSUAFFL2ooASilooAKTNLSUAFFKaKAOR1P/krXhv8A7Amqf+j9Prra5HU/+Ss+G/8AsCap/wCj9PrrvSgAoJpcUhoAWiiigAFFI5KrkV578N/jj4a+KWsanpuiveiaxQTpJeWbwR31uZJIhcWzMMTRb4nG9f8AZPR1JAPQ64X4tw3NzpehxWd39huW1qz2T+WJNh8zrtPBqfw18W/DfjDx54j8I6Pete6r4fht5r8xxHyU855kVVkPyuytbyq23IUgqTuDAQ/FuxGp6Xodsbie18zWrIedbPskX95ng9qAOu0yG4t7GGK7uvttyow8/liPefXaOBVuqum2a6ZZQ232ia58sY825ffI/ux7mrVABSUppKAClopOlAARRS0GgApCQBzS0yTpQB4l8NrSHx3+0P8AEzxfdRx3KeHGtvCOk+Z85tWWFbq9eP5iFMrXUCNgAkWyg9K9vAwOK8b/AGRLX/iwfhrVpAhu9fNzrt06IVzLd3ElwwOSSdvmBMk5IQfSvZKAA9DXkHwLjaw8efG7TFkZ7W18YJLCrgZUz6Tp9zIMgDI8yZ8Z6Agdq9fOQCe9ePfCzztP+O3xrsCyyQ3V7pOsBtuGRpNPjtih55AFirA4H3yO1AHsDMqdTilBB6c14X+2JHPffCuDSobqSyXUNRhje4hOJIxGrzqVPY7oV/DNereBtXm13wfoeo3Wz7Rd2ME8mwYG5o1Y49smsVUvUcLbI9CphOTCU8VzfE5K1trWs7+evpbzN+koyDS1seeFJRRQAGiijFABRRRigBaTFLSdaAClo9aKAOR1P/krPhv/ALAmqf8Ao/T662uS1P8A5K14b/7Amqf+j9PrrelABS4pKWgBNw9RSgg9CDXzJ+1v408ReDNZ8K3Oj63Yx2gjlaXQp9VmsZLyQz20Suwgilnmj2yvD5cSMxkuISFJAK+z/BiCa1+E/g6G48RReLZ49HtVfXoTlNQIiUGdTk5D/e6nrQB2Un3P8K8A+FH7P3ib4b6r5smu6be2lhp0Xh7SRDbyxTR6YLmSZ3lbcQ1xtaNVKhUBjYkHfhfoGj9KAPDfgj+zUfgn4/1jWLXxbq+vaReaJZaVDa6x5DTRvDc3k8js8UMe/c10WBOWLPMzliy7ev8AjaNG/wCEd0j/AISE2P8AY39s2X2n+09n2fb5oxv3/LjOOvfFehjmuF+Ll4+n6ZodylrPfNHrNkRb2wUyP+86LuIH5kUAaXhTwh4LtBDrHhnRtCtxNGRHf6Tawr5iE84kjHIOOxxxXUVU0q7a/sYrh7WeyaQbjBchRIns20kfkTVugAooNFABRSUtABSUE4Fec+PPjNbeD/EVr4d03w/rPjDxJPCLt9L0OKMvb2+4r50skrxxxglXChnBYqQB1I1pUqleXJTV3/Wr7LzE2luejVwH7QWsXXh34DfEjVrFxHe2HhrUrq3cjIWRLWRlOD15Ara+H/jzTPiT4Xtdd0oXEdtMzxyW93EYp7eZHKSwyofuujqysPVTgkc1w37WszD9nrxbZRiV5dWS30WOOFtrSveXMVosecjAczhCcjAY81E4TpzcJqzWjQ7p6o7v4aeHLLwf8O/C+h6apSw03TLa0gBxnYkSqCcADJxk4A5zXSVFawJbW0UMS7I41CKuegAwBUlSAHocV4/4FmFt+0v8VLWUNHPcaVod5ErIQHhxdx7wcYPzo6/ga9gxmvJNH/5O08Xf9iRov/pfqlAEnxt0W38SeJPh1pN5uNpd6pdxyKhwf+Qbd4YZ4yDgj0Ir51+Cf7SPxF0bQvD1xrGhxap4GNvEJ9SELxtpsEMgtJSzqu0sHBlKnnYDz6fSni2FdS+O3gWJVV2sNM1K8bd/AGMEQYe+XI+hNdpp3hfSdJ0qbTLPT4INPmeWSS2RB5bNKzPJkdDuLMcdOa82dGdSq5Qny2f36R/4P3n2dDMsLhMDHDYnDqrzJWu7cq5ql2rdXeLT/u2aaZqW06XMSSxuskbqGVkOQwPQg96lryT4E6nH4euNe+HFzMpvPDFwVtAWJMmnyYkt25JPyB/L/wCAe+B63nNd1OfPFSPl8Vh3hqzp3ut0+6eqfzVgoxS0VocglLRRQAUdKTFL+FACUtFJQAv4UUGkFAHI6n/yVrw3/wBgTVP/AEfp9dea5DU/+Ss+G/8AsCap/wCj9PrrqAFPWikoxmgD5P8A2vNU0yL4mfD+wuZNL0a+ktLu7t9a1CK9vCTDPautslnaMkk7GQRzKN6kNbKVYEc/QHwf0yz0X4X+E7DTxALG20u2hg+y2U1lFsWNQu2Cd3liGP4JGZh0Yk814z+1pezaTq3hm71O7tLvwnJb3VtLoNx4hn0k3F6zQmG4byFMs8cSLNujXOC6ttOMr7D8FbSew+E3g22uvEcfi+5i0i1STXoZTKmosIlzcBySWD/eySSc5oA7aikJ2jNc54Y+JHhbxrqGsWGgeINN1q90eb7NqNvY3SSvaSZYbJApJU5Rxz3VvQ0AdJXDfFue6t9L0N7G2ju7sa1ZmOGWbylc+Z0L7Wxx7Gr/AIZ+KnhDxn4g1XQtC8S6Xq+saS22/sbK7SWa2O4r86g5HzAj68VQ+LcV7Npehpp9xBa3h1qyEctzA00anzOrIroW4/2hQB1+mT3VxYxSXttHaXRGZIYpfNVD6Btq5/IVaqrpkV5DYwpfzwXN4B+9ltoTDGx9VRncqPYsfrVqgAooNFABikbhSaDwK57x34ysPAHhHVtf1JmFrp9u07Ki7nkIHyxoP4mZsKAOpIFVGMpyUIq7YnpqcX8U/jDJ4e1FfCfhCxHiT4h3kQe20tOYrKNjj7VeNkeXCvXGdzkbVGTka3wo+FsXw8028nvb3+3PFWqzG51jXpIjHJey9gFLN5cSD5UjDEIowOSSc34C+CNQ8O+Fp9e8RgHxp4olXV9a+Tb9nmdF22q5JPlwLiNck/dJ43YHqNejiKsaMXhaG32n/M1/7ansuu76WlK/vM8i+BcbaR4m+K2gkER2XiqW8iAkLKq3dvBdEDPIy8sjEdMsccU39qWZE+GelW2c3Fz4u8MxwRDlpGXW7KRgo74SN2PspPapfh4JLD49fFux3K8FxHo+qg7cMryW8luy5zyNtmhHHVm9qi/aEkafU/hJpkUbSXV/43s/KAIAAgtrm6kLEkdIreQjqScDvWeOfNW5u8Yt+rjFv8bhDY9fXkA4pc0g6ZFGa4Cxa8h0of8AGWfi7t/xRGi/+l+qV67mvH76FI/2uNLmRESWbwPdrI4ABcJf22wMe4XzHx6b2x1NAF+zhEv7Rupu5LG38L2oiyfuB7qffj03eWmfXaPSvTgAK808MRG8+O3je5kkLPa6VpltEvACozXLkcdefWvTF71jSejfm/zPQxyanCL6Qh+MU/1PAfjh4if4ffERPEdvIybPC11PcqH2h0t7+yKjdg7flnmBPo3tXvdtKs8EciEMjqGBHcEcV83/ALVenrrXiXSNJeV4YNV0WXTJpIsb1iuNY0iGQrkEZ2yNjjrXpvwT12/u9I1bw/q9yLvV/DF+2kzXO0K1xGqI8MxGTgtE6E/7W7gVzU5tV5wex7eMwkZ5VhsVF+8rp97Xsn8m7fNHpOKTFLSGu8+UFopKO9AC0UZpDQAveijvSUALRSUUAclqf/JWvDf/AGBNU/8AR+n113euR1P/AJKz4b/7Amqf+j9Prrc0ALQKQmg0AfJ37XOt3fhj4meDNQ0PV9S0XxJPpN7p0E1lFaqskM95YRuvn3CyCEqzJKXWGQrHHKxGFr1X9lfQYtE+CXhNrDXtd1jRLvS7SfTLfxDb2cNxYWxhTy4MW0MQOBjJbc2c/NXOftVXHiC3vvALaHd20MUGoS3dzbT36af5yxquc3TqREnltMpKfvAXRkzsbHo3wRXWF+F3h4a/rdn4i1b7OfO1CwuPtEL/ADttRZesuxcJ5h+ZyhY8k0AdxJ92vmf4BfDTxt8PPEdtLq/hzyrbR9Hg8MR3NvfQOdUX7bNK+oFdwKKqMrbGzIWlkAHy5f6awCOaQqvpQB4F8Gvh/wCLNG+NHiPxBq3h+18N6CdIg0q0sobqGe3Ekc0jFrFEQNbwMpVnR8FpCDtG3J9E+Lenxarpmh2kzzxxS61ZhmtriSCQfvM/K6EMvTsRXchRxxXn3xt/sf8A4R3Sf7fWzfSP7ZsvtC36q0BXzeN4bgjOOtAHQaN4KsdCvPtVrdavLJtKbb7Wbu6jwcfwSysueOuM10VZvhv+yf7DtP7CW0TSNn+jLYqqwBc/wBeMZz0rSoADSZpTSUADHAJrxPxlE3xU+Omj+ESw/wCEe8Ix23iTVAq7vtF47yrZ27Hdjaux5yCp5WE5Hf2DWdUtdE0m91G+uEtbK0he4nnlOFjjUFmYn0ABNeYfs16XPdeA5PGGq25TX/F93LrVzJKuJRA7sLOI/KpAjthCuMddx6sc+lhf3NOeJ6r3Y+suvySfo2iJatRPW9oGeBRRRnivNLPJ/BbA/tGfE7B/5g+h/wA76ovjW4/4WV8Bgeo8Y3J/8oGr0KBp/wC1VOGg2HVPBqGKVQMOba9YSBuc5Au4ccYOT6VH8SI4pP2hPg2zortGmtMpYZKt9mjGR6HBI/E13YxLmhJdYx/BJfmiInsI6DHFLSKeBRXCWLXj/iPzNN/as8EzFFeHVPCmr2YIYho2iubKUnGOQQ4HXtXr+a8k8c/8nMfCn/sCeIP/AELTqAL/AMM4kPxN+LEpRTL/AGrZx78c7BYW5C59AWYgerH1NemdjXm3wy/5KR8V/wDsM2v/AKbrWvSTWFP4H8/zZ347Wsv8MP8A0iJ86/tJDPxF8H/9e0X/AKftFrufG3hnxVo/juHxZ4MtrG/uLyyGm6lp9/ctbxMA4aG4yqtkx7pARjJVuCMYPBftJSlvir8P7KNGe4vYhFEBgDKaxpMzZz0G2Jv0r6KA49eK5YQ561T5fke/iMRLDZfg2kndTuns05Lf5r70cp8LvHD+PvCdvqNzbCw1KOaazvrISb/IuIpGjkXPcZUkHuCD3rr815h8LQNN+InxQ0pYkjT+2INSQx8ACazhVhjHB3wuxPcvnrmvUK7KTbh72/8AkfP42nCnXapq0XZpdlJJ2+V7CdaWkpe9anCFJS5oNABRRikoAKKWigDkdT/5K14b/wCwJqn/AKP0+ut6VyOp/wDJWfDf/YE1T/0fp9dd1oAKDS96TP4UAeQ/HvUfDGn6l4QbxN8NZviAjTzi0mt9E/tKTT59qBSMxlIvMJCbmdOQBz27n4c6pp2teDdKvtH0l9D0y4h8y30+SGOEwoScfJGSoz1G0kEHPevnb9rvxHbar8RPhz4atF8QN4ks7l9bsYrbwpc6rYtJA0UiSZDRxmaNkGD5mEWR9+zehPsf7N/h668LfBbwvpl7Zahp91BA/mQap5YuFLSu2WSP5Iwd24Rr/qwQn8NAHplFGcdaMjuRQAVwvxbv10vS9DupIp5o4tasiY7aFppD+8x8qKCT+Arutw45HNcN8W5b2HS9DbT7eC6vBrVl5cVzM0MbHzP4nVHK8Z6KaAOv0u+XUrGK6SKeFJRuCXMLRSD/AHkYAg+xFWqq6ZLeS2MTahBBbXhH72K2maaNT6K5RCw9yoq3QAhpKU01unFAHjv7Tc0uveENN8A2iPNf+NNQh0ragHyWgYS3kjEggKLeOQZ67nXHNevW0SwwpGihEUbVUDAAHQCvIr2T/hMP2pNMt4h5ln4L8PzXNywkyq3d/IiQAqD99YbS4PIOFnHTcM+xYr0MT+7o0aPk5P1l/wDaqL+ZEdW2FFLRmvPLPJtXI/4ak8L5P/Mn6t/6W6dVfxHbxXP7WXgESosog8G6/PEGGfLk+2aQm9fRtruuRzhiO9T+PLeL/hoL4Vy+Wvm/YtaXfj5seXbnGfTNM1z/AJOz8D4/6EjX/wD0v0au/ExtToPvH/26S/QiPU9dHSkxS0dq4CwryHx1x+0x8KvbRPEH/oWnV68K8e+LcSL8bfgfchVFx/aup2/mgfN5baVcuyZ/uloo2I6ZRT2FAGp8Jy9142+KV8EKwS69HCjMR8zRWVtG/H+8DXph6V5r8DZHvbLxlqDKEju/FGo+WoOSBFJ9nJP1aBj9CK9KNYUv4d35no5hZYiUV0SX3JL9D5x/aE/5L98If96b/wBLLGvosjivnP8AaFOPj58IT/tTf+lljX0ZnIz2rKj/ABKvqvyR6OZf7jgf8Ev/AEuR5ppYXT/2jdfTysf2p4asJFdccmC5ulfd74uI8H0B9BXp1easR/w0ZD/2K7f+lS16VzW1PRNeb/zPNxjcnTk9+WP4K35IKMUUtbHniUUtFABSUtJQAUUtFAHI6n/yVnw3/wBgTVP/AEfp9db0rktT4+LXhv8A7Amqf+j9PrrqAEoIpaT8M0AfIXxk8C+G/ib8Tdct73VX026TxFZeHpxc6bLexTPPp0E8SJE92bcjBJLyW5GTjYSu9vpb4ZeBLf4aeBtJ8NWs0c8GnxtGskVpDaqQWZuIoVVF+90VR61yXjD9l34ZfEDxNda/4i8MJq+o3c0VxcLc3lwbaaWOIRRu9v5nlMyoqqCU6CvQPDPhbSfBmiWmjaHp9vpWlWilILO0jEcUQJJIVR05JP40Aab42818i/st+I7vT/Gl+dUv9YNzcadBb+KE1V7l44/EL31woiiEuVUld4xB+72LCTwYyfryigD5a/ZQ8R6d4u+IvjTV9K1bULLT5R5EPhrU766vLx/LlYNf3LzMyxvITtWKM/Km0vljtT2v4treyaZoaafPBa3h1qy8ua5gaaNT5ndFdC3Howruq4b4t2B1PS9Dthcz2Zk1qyHn2zBZE/eZ+UkHH5UAbGjWvim2vd2r6vpF/abSPKstKltpN3GDva5kGOvG38a6GqumWJ02xitjczXZjGPPuW3SP7sQBk1aoADSHpS0yU/IaAPJvg7/AMTH4m/GXVGmV2XxDbaWqpjaEh020cHP97dcOD/uivW68i/Zbjhk+FI1GFcjU9a1i+88gg3CvqVwY5cnkhoxHg91244xXr1ehmFlipwX2bR/8BSjf52uRD4UwNFBpK88s8q8dnPx9+Ff/XprP/ou3qrbQRn9rm+lKKZU8DQKshUblDX8xYA9gdq59do9Kl+LcKL8WPgncKNs/wDwkF9b+YOCYm0i+dk91LRRkj1RT2FR2cit+1rqaBgWXwRa5XPI/wBPnxXfiXelQXaL/wDS5kR3f9dEev0mKXNJ0rgLCvIvjoPsPjP4OapHzcxeLPsihuV2T6feI+R646f1r17mvHv2jmks0+GmqKqSQ6f430rzoy21itwz2SleDkh7pGIOOFbnOAQDV/Z7LzfD+4vGQxx6hrWq30SkjIjlvp3XOO+CM16Wa86/Z7/5JJov+/c/+lMteimsKWtKPoejmStjayXSUvzZ87fGqCO4/au+AiSosiY1lsMMjItlIP1BAI9xX0OBgda8A+LtpPdftWfA2WGPeltDrU0pyBtX7Oi5/NlH417+DkVhh1+8rf4v/bYnq5vJPB5ck9qT/wDT1Y8y8WD+z/jv8Pr3y0Zbux1TTWccOCwt5lPTlQLdx16sPevUK8w+Ixa1+J/wvunQm3/tK7tC47SSWcpUEe4RufavTutdEPil6/ojysU26NBv+V/+lyCiilrY84SjtR+FGTQAtHWikoAKWk7UtAHI6n/yVnw3/wBgTVP/AEfp9dbiuS1P/krXhv8A7Amqf+j9PrraADFBoozQAtFBooAKKKKACvPPjc2lL4d0k63cQ2ulDWbLz5bifyY1XzRgl8jbzjvXodcN8Wr46bpeh3C2s940etWZEFsoaR/3nRQSB+tAHTeGm0xtDtDo08NzpZT/AEeW3m86Nlz1D5O765rUqppl6dRsYrg201mZBkwXKhZE9mAJGfxqyzbRQAtZvia7ksfDup3MJCzQ2ssiEjIDBCR+oq/5gxmuG+PGoz6Z8D/iDeWkr291B4fv5YpUOGR1t5CGHuCBW1CPPVhDu1+Ynoil+zfp6ab8A/h3Eju4bQbOYs+MlpIVdugHdjXpFc98PNOt9G8B+G7Czi8m0tdNtoIY8k7EWJVUZPJwAOtdDVYmaqV6k11k3+IoqySF60UlFc5R5R8XP+Sn/BL/ALGW8/8ATNqNV/BRST9qP4pkbS6+HPDqkjqP3uqHH8jU3x5hX+0PhfcrlbiDxjZiOVSQyh4Z0cA/7SMyn1BIqL4Tov8Awu/43vtG86npYLY5IGl2+B+p/Ou6uv3FGXk190n/AJkrdnr4ooFJ2rhKFrx39qNzH4I8MuOq+NPDZGf+wta17DXz9+3JeHT/AIFC68/7L9n8Q6JL5+/Z5e3Urc7t3bGM5qZPli2a0oe0qRh3aX3nd/s5qx+B/gy4kYNLe6bFfSYGAHn/AHzAewMhA9hXox5Ncv8AC6zi0/4beFra3jWGCLSrVI40GAqiJcACuoNRSVqcV5I3xsvaYqrPvJ/mzz7xN4AudY+LXgzxZFPGsGi21/bTQuTucTrHtK8c4MfOSOD3rvlHA7mnbfajHFWoqLbXUyq16laMIzekFZel2/zbPOPisMeJPhjz/wAzOOP+3C8r0fdmvMvjUZLSbwHqMbKTZ+KLP5GHDCVJbc/TAn3f8Bx3r0tAQoz1rOGk5f10OrEO+HoNdFJfPmb/AFQ+lNJRWx5wtFJRmgBaSlzSUAL60lBo70Acjqf/ACVnw3/2BNU/9H6fXXd65LU/+Ss+G/8AsCap/wCj9PrraAFNFITQetAC0UUUAIxwtfNPgz4r+Kr/AOPz2d74ie40i91jWtIbw08ECx6bDZRwtDdhwgmzIWy3mOUIuY9oGAW+l8AjBrmbr4Y+D77VdV1S58K6LcanqtuLTUL2XToWmvIRjEUrld0ifKvysSOB6UAcXY694mtP2m7vQbrXjeeF7vw0dTtdKFpGn2WVbiKInzQN75yx5IA3Yxxmuh+Lct1b6ZoctlbJeXS61Z+XBJL5SufM6FsHH5V1v9j2H9qrqf2K3/tJYTbC8MS+cIiwYx78Z27gDtzjIzXI/FtL2XS9DTTriC1vTrVn5UtzAZo1PmdWRXQnjP8AEKANnRtT8Q3d55eo6Db6bbbSfOi1Hzzu7Db5a+/Oe1bd1IkMLSSMERVLMzHgADk1Hpi3cdjCuoTwXN4F/ey28JhjY+qoXcqPYsa5P4jTvqraX4at5GRtWlK3LIcMtqgzLg9twwuevzcetc9er7Gm52u+nm3ol82cuKrfV6TqJXeyXdvRL5sxLeLX/iDpl7qttrlxo9g7SNpcFugQuAMRySMRkqxG7bxwRXMfHLxDJ4o/ZlvSUiN1rosdIdGbaiS3V3DavngnCmQkr3CkV7da2kNpbRwQxhIY1CIijAUAYAH4V88fEJorO60Tw9OIfMT4iadLbQADLpIWuOFyfuhJW9ghPY08qpSw+Y4eUpNtvXVtc0feWj2Wktuh5EaUsJWhzSbc01J3dubdWTemnMkl0sfRdrGkEMccaKiIoVVUYAA6ACpaaowRjpT62PoQJ4oopDTA8l/aRVofCXhjUIXaO5sfGGgNEy4/5a6lBbuCCDkGOeQe2QeoqH4MO2ofFb426gsbLanxBaWSs+MtJDploHwATx864Jxmpf2nXNr8LoL0qzQWHiLQb+4KjJSGHVrSWRsd8IjHA54qL9nDzLuH4larM6mXUfHGrFo0XaqC3dLJByTklLVGJ9WOABiu6d3hKbfeS/CL/UlfEz2HtRRikrhKFrwL9vDn9lD4gf8AXvb/APpVDXvn4V4n+2bBZ3P7Nvi+HUZRBpzmyFzKzbAkX22DexbsAuTntipkrpo1oz9nUjNdGmeq+ENOk0bwvpFhKyvJa2cMDMvQlUCkj8q16jgGEx2GAKlppWViZyc5Ob6hSMcUUGmQeZfHR1Gk+FSTgDxPpfJ/6+Fr0sMMCvOP2goI5PhtMzIGK6npjLkdD9vg5rY8c+PU8I/YLO1spNX1zUpPKsdNhO0yEEBndsHZGu4FnI4yOuQKmlTnVrOEFd2X6/5HrKjOvhqMaau3Ka+5Rd79tdb7WOw3gc0u6vL5tf8AiT4cj/tDVdC0vXLBl3y2mhu6XdqM8hRJlZ8DuPLzg4HQV2vhTxVpvjLRLbVdJuUu7KcHa68EEHDKwPIYEEEHkEYrrqYedKPPo4907q/by/XoctbC1KMee6lHa6d1fs+3z36G5RSAijqK5jjFozRRQAUZpKWgDkNT/wCSteG/+wJqn/o/T6641yWp/wDJWvDf/YE1T/0fp9db+FACmk/Gig0AKaKKKACiiigArhvi3ZyX+l6HBDez6dK+tWQW6tljMkf7zOVEisv5qa7nNee/GxdHbw9pH9vmzGkf2zZfaP7QKCDb5oxv3/LjOOvtQB2un2j2NjDBNez6hIgw11cBBJIc9WEaqufoorlNIjGp/E3XLllJTTrSGzjODgM+ZHx+Hl/p6VtaLqGgW+m21votxpwsEt/PgjsZE8oQ5I3KFONucjI4zWT8KlN14ek1iVR9o1ed71nxjcjHEX4CMIBXBX9+tSp+bl9yt+bX3HmYn95iKNLs3J+iVvzafyOw4Ud6+evimjn9pb4W2UKmaW51L+0WVVPyRQadqcTsT0+9cxj15784+h3Ix2rxTxF40W0/al8P6HKbKO2h8NXN9JNIQJELSkckn5QBEefdq7o80JKrFX5d/wDt5OH/ALdcWYe7GnPtOP4vl/U9qToM0+o4LiO5hjljkWSORQyshyGB6EHuKf8AjRseoKaKT2zUDX0IvfsgmjN15fm+TvG/ZnG7HXGeM0wPL/2pXWH4C+LppGCRRQRSyOeAiLNGzMT2AUEk9gCarfsnpG/wat7sM0s17rGsXM8zuXaV21O5y5JJJJwK6L4+aNL4k+B3xC0qB0invvDuoW0ckmdqs9tIoJx2Ga5n9ju2kt/2Y/hxLcNIbu+0eLUrlpVCsZ7nNxKcAAAb5WwMcDArulNSwcI31UpP71H/AORJ+0ey8UmOKjuLiO2gkmlkWOONS7u5wqgDJJPYUW9xHcwRzROskcihldDlWB5BB7iuEolr5y/4KDancWP7KPje3tIhPc38MdmkO0sz75FyFA5LYBOPavown1rxb9pfSl8XWPhTwrFOsN9rGozRRkru2ILK5DyEei7wTzWNV2g7Ho5fFSxML7K7/wDAU3+h67o9/b6tpttf2kontLuJJ4ZV6OjDKsM9iCDV3rXmP7Oni2PxT8DfhrfOIre81Dwtpt+bQS7mRXtoznHBIBOM4r03PvWx5wUcCl6d6iuZ0toJJZXWONFLM7nCqAMkk9hQBwH7Qdg2qfBTxlDFEs0yadJcIpxkNGPMDDPQgrkH1ArN+C9u3i2O5+IV/C/2zW8iwW4wXtbBTiJAMfLvx5jDJyWGelWvjb4ie3+HNzaabEl/e6+Bpdoq5dG85G3Px1Cxh347LV34D3aXvwX8DTKysTo1oG2nOGEShh9QQQfcV1R/c0XLrU0/7djv97a+4+ii5UsobtrKdvk0r/e4rXrZo74/dNeTXem+Kfht4p1/VdD0WLX/AA3qjLf3FlDOY7q3nCqspiQgrJuVQ23IJbPPNeskj1qCW+gjvYrRpoxcyxvKkJYb2RSoZgvUgF0BPbcvqKmjWdG6tdPdP7zx8PiHQclyqUZKzT9b9La+Zyvgr4laV42vtTsbOK+s77TynnWmo2j20oRxlXCOAdpwRn2NdiCMV5n450rxDpXjjSfFHhzS01qT7LJpt7YNdC3zGzq6S7jkHYQwxgnDnFDfEvxS0Ihi+Gus/wBpD70ct1bLbgcc+d5hB5J6Ang8V1TwqqWqYe3K1s5K6fW+3rt1O2pg1W5amFsotbOcbp7O92na+qdtmemZHrQMGuG8LfFXTPEOorpN3Dc6D4gCszaTqkRilIBwxjb7sqj+8hI5rsdPvbfUbC3u7WeO4tp41limicOkiMMqysOCCCCCK4alKdGXLUVmedVo1KEuSpGz/rVd15lg9KWkz70ZGetZmJyOp/8AJWvDf/YE1T/0fp9ddXI6n/yVnw3/ANgTVP8A0fp9ddQAYox7UUUALRRRQAU1xlTTs0jDcCKAPCvgX8c9d+JXin7LrOnada6dq+lNr+htYmTzo7Vbt4DHdbiQZceS2U+XLOv8Ks/ofxQWRNN0q5W1ubuK01S1uJo7SB55BGr8kIgLNj2Bqt4C+CnhX4aa3q2r6Fa3MV3qPyuLi8lnjt4/NklMVujsVhj8yV22RhVyenAxy3jj9o6HwF8TbTwzqPhu5XTJUmkk1X7VH5gjitWuZrhLUZkkt0AVGlGMSHYATjIBkeOvFd3qniC7Gl+H/Ef2W+0tdNa+/sW6RYN0pLtgx7uEJxgHnFbtj8Sb2w8KwxQaDrSX8OpCBIBoF5sFgL3YH+5jd9l+brnd2z8tctp37Wl5qljbWMHw81AeOL64tk0/wxJqVuDcQT2cl5HM1yCYk/dQTgqSSHjwMqysdDwx+1po3jLxJ4dh0jQr6fwvrAsIP+EhkkSMW93eWX2y3gaA/vDmIxZcZVWlUdA5XCNFRqOq3dtJeiXb7zmjQUa0qzbbaS9Er7ffqb/iz4zXeh6laS6Z4N8WeItPNpcm4gsdDmjmE4MRhAM/lrhl84Hk87c4rxuw/t/xWPHvjHVfC3iLRPEur30A0rR7zSbmSSCxt4HhSKSSJXiBcz3T4ViB5nJznH1H4w8XaZ4E8NX2vazObbTrKPfK6oXY5ICqqqCWZmIUKASSQB1rw3/hse0bQdG1YeDNTWCSG6vtbjkuoRJotnDqBsWlcAkTNvWRvLiLELE/JJQP2SmpYeph7W59G9b2TT06bpPa+gYihHEwdOb0f9J+q6HX6N8Tbi00/wAK2yeHfEdskUi2+oifQrpykK2smHUqhB/fCJe5wTxjkbUPxRDeJb+OXSdfGjraW7W0o8P3u5py83nKR5WcBRBjgfePJ5x5/e/te6fp1xrXn+Fb8WYF4vh64W4iP9uTWt/Fp08YXObf/S7mBFaXAKuX4CmvUvhb8Q/+FkeGZ7+bTJdE1OxvrnTNQ0yWVZjbXMMhR1Ei/K6kBWDDs4yAQQMErKzdzeKaSTdzmbT4qaifDPhyWbQ9cXW5Psv9qwjw/ebIsgfaNv7vBwd2ME+2am/4Ti2HxCOp/wBk+IvsJ0sW3m/2Be/6zzt2MeVnpznpXL3H7WOj6d8cPFHw/wBRsbbTbfw+pe51O51FRLKBp8V6xitgm6TCS4wrFvkY4wKz9O/a0vNVsLaxg+HmoDxxf3FsmneGZNStwbiCezlvI5muQTEn7q3uAVJJDx4GQysaKNT4ifEbW9T+C3jm307w3r154unsdVt9Jsl0K6VJWJmSz3MyBQGTyS2WHU9DxXnfwb8VeMPgHDo/w/8A+EN8XeNPAel2kkWn67baU63USEoYbeeObyzmMCVNyBgwaP7u0ivQfDP7WmjeMvEnh2HSdCvp/C+sfYID4gkkSMW13eWZvLeBoD+8OYjFl1yqtKo6Byvo/wAXPiVZfCL4f6n4pv4DcxWrQQxQCVIhLPPMkECGRyFjDSyxqXY7VBLHgGuqlX9nGUJRUlLvfdbNWad1d+XdEtXdzjrf4qXfiTQfFceoeFfE+lNKZINNtrjQrgyPEbaMZYxq6gmUyjkjgDI7m9Y/EaTTNP8ACNrBo2vlEKQ6nu0C9JiiW1k5X93yfOES8Z4J7cjkNQ/a3h03StGv28JTXVrLZNq2q3Nhq9pdW9hp4uEtxdxyxOy3KszO6qnz7Yn3KrFFYvv2vdP0241rz/C1+LJReJ4fuVuIidcmtb+LT54guc2/+lXECK0uAVcvwFNcrte6RR1Wp/Ge70/xRdxR+DvFeqaMbOBoLi10OZCJy8wmVhJsOAogIwMfMeTzjzu28e+LvEfjDwzr+oeDde0mXRtPhtZ1n0aZ/tM1xPbfbXjWMPtSOKKXG4hicYDV7X8LPiH/AMLI8NXF/NpkuianY31zpmoaZLKsxtrmGQoyiRfldSArhh2cZAYFRynjj446l4C+JFloN/4S8zQbmGe8Otw6krPFawQCS4uHtgm4IjFU+9liy4Bzis5Q57XZ10cR7FS5Yq7TV9euj622utuvc8V8Jaz4p/Z++I13Y6D4A8V+OvhpJamPSF03S2t73R/MneWW3dbgRLLCrHKMGLANtO7GR7NbfF/V77wVrl5/wi3iKw8QgXZ0zT7rQbkk43fZxIUDJ82Fz8/fnHbl9N/a1u9VsLayg+HmoDxvqFxarpvhmTUrcG5guLOW8jma5BMUf7q3uAVJJDxYGQysdHwz+1po3jHxJ4ch0nQb6fwvq/2CBvEEsiRi2u7yzN3b27QH94cxGIF1yqtMo6ByuhyHa6z8UQt9oy2Gka/JatdML9n8PXoKQ+RKVK5iHPmiIcZ4J47jk9T+MWqX2n+JrSXwJ4ukjm3xad5ejOpaM26D58nr5pl/4Dtrv/iz8RYPhR8PtV8Uz6fNqaWQiVbWB0jLvJKkSbpHISNA0il5GIVFDMeFNeQ/8Nl2Z0bT9QXwffyRxR3NzrzR3sDx6VawXgs5LiOQErdoZPMZfKySsT5AbarXCSi7tX+80hJR3jf1v+lin4V13XLvWPDWva94a1azl06OLT4NKGjXlx9lh8sia4LiML5jEKo25wueuTib4e+PNf8Ahlq2r+HJPBPiTWvCSSy3WkajpmjTRsnnXE0rwyxy7CuzzERdoK7VzkE4GjffteafptzrZn8K34sVF6nh+5W4iJ1ua0votPniCZzb/wClXEMatLgFXL5AU16j8LfiH/wsjw3cX02lyaJqdjfXOmajpksqzG2uIZCjKJF+V1I2uGHZxkBgVBXk68lLa2iS2S7a3/zud8sfKSlCUE4tJJa2Vr2trfS73bvd3OVtvixqkvhqGd/D+vQ6u2pKGtn0C7Pl2ZvQCSVQrvFr83DH5hxnpVu/8cWs3xD0TU00nxE1lb6Xf20sn9gXo2ySTWbIMeVk5EMnIGBt56jOZ46/aSsPA/xS0/whNolxcwS3OnWd3qK3UMZt5b6VorXZAxDzKZFAdk+5uBwcHHMaR+2FDrmmQyW3gy+Gp6wunXXhmwe9hH9sWd9JKtvcGTpb/JBLIySfMqqAAzHbUHms7S6+Keojwz4ilg0TW21uP7V/ZUJ8P3myXAP2fd+7xyducke+K1NY+KKrf6KtjpGvyWj3bC/Z/D17mOHyJSrLmIc+aIRxngnjuOB0v9rvTtYvNANt4X1A6XcDTotbvXuIgdFub67ksraBo85nJuomjZo8qow2SDx6H8WvipJ8K9N0e+/4Ru/1y0vtVstLnubSaCOOx+03UNsksvmOHZd8y8Rq5z1CjLAEc7qevaJ43Os2XinwvrF5p8d4v9mu3h29L+V5ERLhhFuRhKZgCNpwo9ifP/DF/wCMvAXg/wAK2+g3PiC+mit7aG+0XXfD108NtiIBxHNHCGCqy7QBv4IxnHPS6/8Atb6T4X13xHHqXh2/i8P6YNShtNZjljcaheWKI1xbLDnfGcs6q74VjC/IBQvQ1X9rmXR9OuYJ/AV+3izS5b861oMeoQH7BbWdvbXM86zkiOb9zfWbKi4JMxHGxiOmnialOPInePZ6r8dvkdtLF1aMfZp3j2auvue3qrMvW/x48Y22sumo/DLxBdWHkAK+kWcr/vQ5yT5yRHaV24GOMe/Ba/HnxXLp6xzfDPxdBffbg3mtpW6P7J9qGVwHJ8z7PkZ6bx6Vs+F/2kLDxZ8SY/Dtpol0NCu7mfT9O8RNKnl3l5DbpcSwiA4kQBGkw7AAmFx3Qsi/tC3h8MfErVP+Fe64L7wRffY59F+12P2q5T7LBc+cref5Kp5c4bHmFtq/d3/JVuvTat7KP/k3/wAkVLEUpK3sI373l/8AJGl4d8WXHjT4naZdp4Z1/R7Sy0i+ikn1exNujPJNZlFUk8kiJz+Feo4rxG5/aftIPEXh2yj8N3k2l30OjvqWqLcRhdMl1SQw2MZjPzS7pdqsyDCBwTxuxh6V+2Hb6xpolt/Bt+NQ1RbC48MWT3kI/tu1vJ5IoJy/S34iaRkk+YLgAMx2jlbu9EcTab0Vj6KxS8d65X4Y+Prf4neCNM8RW9pNp/2pZEmsrghntp45GimiLLlWKSI67lJDbcgkEGupNSSLRRRQAUUUUABGRXkfjb9nax+Inju21vXtf1O+0W3ke5Tw7IYzbrO1q1qzJJt81EMTtmJWCl2LnkmvXKDQB8+2H7JI0zTIJrfx7rY8X2dxbyWHih7e1NxbQw2klpHB5XleUy+TNNliu4tIWzwANLw3+yh4f8I+JvD93pOr6jbeHtHFlKvh4+W0E91aWZs7e4eQr5m5YdgKhgpMaEjqD7hR3oA5n4gfDjQPifoUej+I7J76wjuI7tEjuZbd0ljOUdXiZWBB54NeNW37Ffh3TNF0rR9N8RaxY6ZCt1balBvWc6rZzX32020ryhmQK+5Q6FWKu+SScj6LNJQB4Jd/si6NfXOtmfxHqr2ky3Z0W2CQgaHLc3sV/PJC2zMhN1BBIBLuA8vbggmvTfhj8PI/ht4Zm03+0rjWb67vLjUb/U7tESS6uZpC7uVQBFHIUKoAAUdTknrqWgDx/wAW/s7QeOvHT6vr3ijV9R8OG6+3r4WkEQtY7j7EbMssgTzQhjZ2MYYDe7N3xXNWH7JqaXpkE1v481weL7O4t5LDxO9tatcWsMFpJaRw+V5XlOvkzzgsV3FpC2eAB9CHpXx5+0DrXxA0L4m+JPDnhT+1r6fUltfG9itpccgadayGSzXcMLHNc2enxsig/wDH65Od+0AHqXhr9lLw/wCE/E3h+70nV9StvD+jrZSr4eYRtBcXVpaG0trh5Cvmbli2AqrBSY0JHUH0T4qfDm0+Kvga98N3l5caes0tvdQ3lptMlvcW88dxBIAwKttlijbawIYAg8GvkrxJ+0n4x+H3gK68VaFcWt7N4mtvEPjOwtNVhE0b2NvJClnGjPdQ+Wr2/luUiEzM8hZVwTXp3ir9onxponiLX9P0zQ7HXF0ywu/FEItg5F7o6aZvgWNlZv3sl8RGGCkFEfCdGoA0bn9kDSbuC1iPinVke4NwmvukNuBrcU92t3JE6+XiFfMVgPJ2kLI4yeCLN3+yLo1/c64bjxHqr2c63Z0W1CwgaHLc3sV/PJC2zMhN1BDIBLuA2bcEE14ZqP7Uni6W00TxULzSfE0ukw6tdRDw/IscF4o01ZVWe3iubgAxMSeZSSBkiM5xv3H7T/xL1DRR/YeseCrySz0nxDq8+rx2Ru4b2PT4dNljRIre+dYHY30kbDz5cBFfgkxgA+n/AIY/D2P4a+GZtO/tG41q/u7241G/1O7REku7maQu7lUARRyFCqAAFHU5Jrz/AAw0vUvF3iPXNSkk1JtZ0uLRmtZeEt7UeYZI0IwR5hlJY9TtXn5Rj521D9p3xprXjS10LTfEfhLQr7U9ZGiW/h2902W51O3jOlvdi/Yrdx7omkC7VEYBRh+83E44L9n34zfElbLw74gn8Y6R4psLy18Fadqy3FpNLLLJfSG2k2SC5KxTRF8SsVfzJI2ysX3QAe9WP7JaaTpkEtv491seL7K4tpNP8Tvb2rXFrDBaSWkcHleUInXyZ5wWZdxaUtngAaXhr9lLw/4U8TeHrvSdX1K28P6OtjKPDzCJoLi6tLQ2ltcPIV8zcsWzKqwUmNCR1B5X4gfFLxF4cu/jZe6XJdah4hs9Q0vwn4X0yFlZRcXNnbSo6xMyq8glvXdizKDHAoLIqs1ct8Pvip8Q9F0nwn8MbBpdE8UQ+J5fD5u/Htst/fDS/wCzLu/tbiZLW5CSSlbfyi6ykOYnJ2sWVAD6V+LHw2svi34B1HwtqFzPZwXbQzJc24VnhlhmSeF9rqysBJEhKsCrAEEYNeTL+xloyabZ2ieKdWj843Ka80cNuo1uK4u1u5YpFEe2FfMDAeSEIWRxknBHmmm/ti+LtU0/wpf3Gq+EtBur+Pwup8PXlnK95q51K5hjuZ7RvtK7IolkkAykvzRNuIGM4837TPxE8f2TXkXinw/4SsdM8WaLBcXUViLi0SC5nmRoXuotQKSqvlpv3iByHG6KMMhIB7jefsi6NqF1rhuPEWqvZ3C3h0a1CwgaHLdXsd9PLC2zMhN1BDIBKWA2bcEE16Z8Mfh3H8NvDc2nHUrjWr+8vbjUb/U7tESS6uZpC7uVQBFAyFCqAAqjqck/L+p/tV/EDTPAPhrXtQ1vwZ4fn1bQ73xFAmo6fN5d+YDCiaZbk3Sk3DlpHL4bAljURvtZ23Ivjf8AF3xJ4yisdMvvCuh6fqPiDU9CtbfUdEuLm4sxaWpufNlZbuMSMdrRmMBQPvbv4aAPXPHXwHt/H3xK0PxPquu3D6fpU1tdRaP9itipmgk82NluDH56L5gidkV8MYlzxkVyWkfse6domlrBa+LtYXUNOGnweHdQaG3L6Ja2UkjW1vGvl7ZVAmkRmlDMyt1BGa4D4d/tJeJvjb4x8L+ENTNjpel+J/ClreXa6GQ15bSXOkx3bTCZbrzbUq8pRA9syEKh8/e4jH0F+z54v1L4g/An4d+J9YkSXVta8PafqN28a7VaaW2jdyB2G5jxQBw2nfsjaLpV74ea18Raqmn2S2D6rYssLLrM9ldPeW08zbN0bC5keUiIqrcDAAr1L4j+A7b4j+GY9GurmW0hTUdP1HzIQCxa0vIbpF57M0CqfYnHNdRRQB4Xrn7Jmg+JNe8RXGpa1qc+i6qmoPBoqiJYrC6vURbm5jkCb2Y7CwVyyqZH4wQBQ1L9kSDVtLma48ca1/wkuoTXx1jX0t7YTajb3kFvb3EBj8vy41MVnaKGRQw8kHOSc/QdJQB5H4a/Zy0rwr8SV8TWer339mW8819YeHmWP7NZ3k1ulvLOr7fNbdGjfKzFQZXIH3dvQr8JbJV+JIN7cf8AFcS+bdcL/ox+wQWWI+OfkgVue7HtXd0tAHi1z+zFplx4j8Paguv6jBYafBpMd9paJEYtTk02Qy2MkjFC6GOQhyEIDbVB4znE039j7TdI0x4LbxZq63tiLGHw5fNFbl9Dt7Od5beCNfL2yqPMdGMoYspAyCM19B9KMUAcz8NvAdr8M/Bem+HLO4mvI7NXL3dzjzbiaR2kllfaAoZ5HdyAAAWwABgV01FGM0ALRRRQAUUUUAFFLRQAlFFLQAlFBpM0ALSUuaSgA61EbWEzibyl80KUD4+YKSCRn04H5VNmigCk2jWEiQI1lbsluMQholIiGMfLxxxxxU0dlBCyskEaMqCMFVAIUdF+ntU9JQBUg0ixtURYbKCJE3FVjjChd33sY6Z7+tJFo9hDCsUdlbpEiNGsaxKFVWPzKBjgHAyO+Ku0UAcDJ8E/C83xJj8bywXs+rxMJIoZr+Z7SGYQmETJAW2K/lEpwMckgbiWPYw6NYW6lYrG3jUsHIWJQCwO4Hp1BJOfWrlAoAwYfBOkWniq/wDEMNoF1O+ihiun3ErL5W/y2KnjeokYbgM4IBOAMa7WFs1yLhreIzjBEpQbhgEDn6Mw/wCBH1qxR1oA898R/A7wt4r8X6V4h1C2vJLjTfJMVkl9MtkzQyeZAzW4byyY3+YfL1wTnauO1XRrD7PLB9htxDK/mSReUu12yDuIxgnIByfSrlLQBTl0awmjgjksrd0gYNErRKRGR0KjHB+lPGn2quHFvEHDM4YIM7iME/UjgmrPeigDD1vwfpeuaPf6bLarBb31m1hNJaHyZfJZdpRXTDLweMEY7YrS0zTLTRdPtbCwt47SytYlgggiXakcagBVA7AAAYqzQaAFzSUtJQAtJ2paKACjvSUUAGaM0opPwoACaMmigjNADqQ0UUAA6UGiigA7iloooAKKKKAEPSjsaKKAA9qSiigA70vY0UUAB6UGiigANJ6UUUAKOlAoooAKTvRRQAUUUUAH+NJ6UUUAL2paKKADvSdqKKACgdKKKAA0p/rRRQAnajuKKKAFNA70UUAf/9k=;" vertex="1" parent="1">
                    <mxGeometry x="80" y="90" width="300" height="274" as="geometry"/>
                </mxCell>
                <mxCell id="4" value="`u`" style="text;html=1;align=center;verticalAlign=middle;resizable=0;points=[];autosize=1;strokeColor=none;fillColor=none;fontSize=18;fontColor=default;" vertex="1" parent="1">
                    <mxGeometry x="125" y="245" width="40" height="30" as="geometry"/>
                </mxCell>
                <mxCell id="5" value="`g`" style="text;html=1;align=center;verticalAlign=middle;resizable=0;points=[];autosize=1;strokeColor=none;fillColor=none;fontSize=18;" vertex="1" parent="1">
                    <mxGeometry x="160" y="270" width="40" height="30" as="geometry"/>
                </mxCell>
                <mxCell id="6" value="`r`" style="text;html=1;align=center;verticalAlign=middle;resizable=0;points=[];autosize=1;strokeColor=none;fillColor=none;fontSize=18;" vertex="1" parent="1">
                    <mxGeometry x="205" y="255" width="30" height="30" as="geometry"/>
                </mxCell>
                <mxCell id="7" value="`i`" style="text;html=1;align=center;verticalAlign=middle;resizable=0;points=[];autosize=1;strokeColor=none;fillColor=none;fontSize=18;" vertex="1" parent="1">
                    <mxGeometry x="245" y="275" width="30" height="30" as="geometry"/>
                </mxCell>
                <mxCell id="8" value="`z`" style="text;html=1;align=center;verticalAlign=middle;resizable=0;points=[];autosize=1;strokeColor=none;fillColor=none;fontSize=18;" vertex="1" parent="1">
                    <mxGeometry x="310" y="275" width="40" height="30" as="geometry"/>
                </mxCell>
            </root>
        </mxGraphModel>
    </diagram>
</mxfile>